<?xml version="1.0" encoding="UTF-8"?>
<svg id="Layer_2" data-name="Layer 2" xmlns="http://www.w3.org/2000/svg" viewBox="0 0 1137.46 233.92">
  <defs>
    <style>
      .cls-1 {
        stroke: #7c4795;
      }

      .cls-1, .cls-2, .cls-3, .cls-4, .cls-5, .cls-6, .cls-7, .cls-8, .cls-9, .cls-10, .cls-11 {
        fill: none;
        stroke-miterlimit: 10;
        stroke-width: 10px;
      }

      .cls-2 {
        stroke: #5194cb;
      }

      .cls-3 {
        stroke: #63451a;
      }

      .cls-4 {
        stroke: #42aa6d;
      }

      .cls-5 {
        stroke: #4162ab;
      }

      .cls-6 {
        stroke: #686969;
      }

      .cls-7 {
        stroke: #322e2f;
      }

      .cls-8 {
        stroke: #e7d04b;
      }

      .cls-9 {
        stroke: #ed7993;
      }

      .cls-10 {
        stroke: #ea5d4a;
      }

      .cls-11 {
        stroke: #e84b4b;
      }
    </style>
  </defs>
  <g id="Layer_1-2" data-name="Layer 1">
    <path class="cls-5" d="M0,137.19H290.41c72.66,0,148.78-70.82,242.2-72.57,93.42-1.75,258.11,72.57,314.86,72.93s186.95-.36,186.95-.36h103.04"/>
    <path class="cls-4" d="M1137.45,95.82h-203.89c-52.01,0-107.05-24.25-150.59-25.17s-71.31,3.24-114.58,19.05c-43.27,15.81-124.92,34.76-205.96,21.62s-76.81-15.5-125.8-15.5H2.18"/>
    <path class="cls-8" d="M0,116.87H302.61c29.48,0,95.25,23.94,136.08,43.64,40.82,19.7,114.95,31.52,176.9,6.22,61.96-25.3,100.7-49.86,178.26-49.86s343.6,.77,343.6,.77"/>
    <path class="cls-7" d="M1137.45,220.04h-252.88c-57.15-.83-113.4-53.8-200.49-84.39-87.09-30.59-138.8-28.57-220.45,1.39-81.65,29.95-117.03,83.01-210.47,83.01H0"/>
    <path class="cls-11" d="M2.18,177.99H317.28c30.24,0,132.45,22.47,185.07,25.93s117.33,0,181.44-12.97,54.43-12.97,182.65-12.97h271.02"/>
    <path class="cls-9" d="M0,199.67H287.07c82.01,0,147.73,25.61,243.69,29.12,95.96,3.51,123.64-59.99,179.46-62.09s121.79,32.97,171.15,32.97h256.08"/>
    <path class="cls-10" d="M0,158.36H271.07c94.8,0,80.27,0,155.01-9.13,74.73-9.13,132.16-17.75,237.35-5.93,105.19,11.81,186.84,15.06,236.89,15.06h237.13"/>
    <path class="cls-6" d="M1137.45,75.74h-169.42c-12.7,0-93.14,.12-143.94-16.07-50.8-16.19-127.01-55.88-232.24-43.18-105.23,12.7-137.29,59.25-198.98,59.25H0"/>
    <path class="cls-2" d="M0,55.27H277.36c62.97,0,86.5-11.54,86.5-11.54C454.51,1.75,503.64-7.35,591.7,22.57c88.05,29.92,263.48,32.7,313.3,32.7h232.45"/>
    <path class="cls-3" d="M1137.45,33.74h-313.07c-42.78,0-121.7,11.54-162.98,28.28s-90.96,38.06-160.57,32.79-132.45-61.07-216.36-61.07H0"/>
    <path class="cls-1" d="M1137.45,14.02h-269.21c-48.39,0-137.89,1.6-177.81,13.22-39.92,11.62-105.84,35.69-177.81,21.1S404.08,14.02,348.88,14.02H0"/>
  </g>
</svg>