<?xml version="1.0" encoding="UTF-8"?>
<svg id="Layer_2" data-name="Layer 2" xmlns="http://www.w3.org/2000/svg" viewBox="0 0 575.03 233.92">
  <defs>
    <style>
      .cls-1 {
        stroke: #7c4795;
      }

      .cls-1, .cls-2, .cls-3, .cls-4, .cls-5, .cls-6, .cls-7, .cls-8, .cls-9, .cls-10, .cls-11 {
        fill: none;
        stroke-miterlimit: 10;
        stroke-width: 10px;
      }

      .cls-2 {
        stroke: #5194cb;
      }

      .cls-3 {
        stroke: #63451a;
      }

      .cls-4 {
        stroke: #42aa6d;
      }

      .cls-5 {
        stroke: #4162ab;
      }

      .cls-6 {
        stroke: #686969;
      }

      .cls-7 {
        stroke: #322e2f;
      }

      .cls-8 {
        stroke: #e7d04b;
      }

      .cls-9 {
        stroke: #ed7993;
      }

      .cls-10 {
        stroke: #ea5d4a;
      }

      .cls-11 {
        stroke: #e84b4b;
      }
    </style>
  </defs>
  <g id="Layer_1-2" data-name="Layer 1">
    <path class="cls-5" d="M0,137.19H146.81c36.73,0,75.21-70.82,122.43-72.57,47.22-1.75,130.48,72.57,159.16,72.93s94.5-.36,94.5-.36h52.09"/>
    <path class="cls-4" d="M575,95.82h-103.07c-26.29,0-54.11-24.25-76.13-25.17s-36.05,3.24-57.92,19.05-63.15,34.76-104.12,21.62-38.83-15.5-63.59-15.5H1.1"/>
    <path class="cls-8" d="M0,116.87H152.98c14.9,0,48.15,23.94,68.79,43.64s58.11,31.52,89.43,6.22,50.9-49.86,90.11-49.86,173.69,.77,173.69,.77"/>
    <path class="cls-7" d="M575,220.04h-127.83c-28.89-.83-57.32-53.8-101.35-84.39s-70.17-28.57-111.44,1.39-59.16,83.01-106.39,83.01H0"/>
    <path class="cls-11" d="M1.1,177.99H160.39c15.29,0,66.96,22.47,93.55,25.93s59.31,0,91.72-12.97,27.52-12.97,92.33-12.97h137.01"/>
    <path class="cls-9" d="M0,199.67H145.12c41.46,0,74.68,25.61,123.19,29.12,48.51,3.51,62.5-59.99,90.72-62.09s61.57,32.97,86.52,32.97h129.45"/>
    <path class="cls-10" d="M0,158.36H137.03c47.92,0,40.58,0,78.36-9.13,37.78-9.13,66.81-17.75,119.99-5.93,53.18,11.81,94.45,15.06,119.75,15.06h119.87"/>
    <path class="cls-6" d="M575,75.74h-85.64c-6.42,0-47.08,.12-72.76-16.07S352.39,3.79,299.19,16.49c-53.2,12.7-69.4,59.25-100.59,59.25H0"/>
    <path class="cls-2" d="M0,55.27H140.21c31.83,0,43.73-11.54,43.73-11.54C229.76,1.75,254.6-7.35,299.11,22.57c44.51,29.92,133.19,32.7,158.38,32.7h117.51"/>
    <path class="cls-3" d="M575,33.74h-158.26c-21.62,0-61.52,11.54-82.39,28.28s-45.98,38.06-81.17,32.79-66.96-61.07-109.38-61.07H0"/>
    <path class="cls-1" d="M575,14.02h-136.09c-24.46,0-69.71,1.6-89.89,13.22s-53.5,35.69-89.89,21.1S204.27,14.02,176.37,14.02H0"/>
  </g>
</svg>